# xmcd CD database file
#
# Track frame offsets:
#	150
#	19052
#	36617
#	52165
#	73402
#	90875
#	108445
#	122347
#	140402
#	159820
#	180947
#	201147
#	218882
#	236767
#
# Disc length: 3411 seconds
#
# Revision: 2
# Processed by: cddbd v1.5.2PL0 Copyright (c) Steve Scherf et al.
# Submitted via: CDex 1.70beta2
#
DISCID=c00d510e
DTITLE=薬師丸ひろ子 - 薬師丸ひろ子・ベストナウ
DYEAR=1989
DGENRE=Blues
TTITLE0=語りつぐ愛に
TTITLE1=時代
TTITLE2=メイン・テーマ
TTITLE3=セーラー服と機関銃
TTITLE4=あなたを・もっと・知りたくて
TTITLE5=Woman "Wの悲劇"より
TTITLE6=天に星、地に花。
TTITLE7=紳士同盟
TTITLE8=ささやきのステップ
TTITLE9=終楽章
TTITLE10=ステキな恋の忘れ方
TTITLE11=探偵物語
TTITLE12=A LOVER'S CONCERTO
TTITLE13=胸の振子
EXTD=YEAR: 1989
EXTT0=
EXTT1=
EXTT2=
EXTT3=
EXTT4=
EXTT5=
EXTT6=
EXTT7=
EXTT8=
EXTT9=
EXTT10=
EXTT11=
EXTT12=
EXTT13=
PLAYORDER=
